<svg version="1.1" id="Layer_1" xmlns="http://www.w3.org/2000/svg" xmlns:xlink="http://www.w3.org/1999/xlink" x="0px" y="0px"
	 width="100%" viewBox="0 0 196 166" enable-background="new 0 0 196 166" xml:space="preserve">
<path fill="#FCFEFD" opacity="1.000000" stroke="none" 
	d="
M1.000000,67.000000 
	C1.000000,44.666672 1.000000,22.833344 1.000000,1.000012 
	C66.333313,1.000008 131.666626,1.000008 196.999954,1.000004 
	C196.999969,56.333298 196.999969,111.666595 196.999985,166.999908 
	C131.666718,166.999939 66.333435,166.999939 1.000074,166.999969 
	C1.000000,133.833328 1.000000,100.666664 1.000000,67.000000 
M31.866648,96.514626 
	C31.697687,96.275963 31.475077,96.108688 30.988018,95.287674 
	C29.642752,92.540947 28.297483,89.794212 26.815672,86.495995 
	C26.807255,86.120186 26.798836,85.744370 26.923069,84.536507 
	C26.742384,82.458755 25.859196,80.122284 26.511421,78.351273 
	C28.549324,72.817680 26.732290,69.569016 21.068848,67.403839 
	C21.068848,69.190857 21.068848,70.634270 21.050566,72.038132 
	C21.050566,72.038132 21.085863,72.059959 20.328856,72.146828 
	C17.085243,75.851631 17.014931,79.473320 20.328228,82.801865 
	C20.658525,85.918930 20.988823,89.035995 21.288813,92.795280 
	C21.460329,93.182884 21.631844,93.570480 21.738249,94.808723 
	C22.539171,97.852371 23.340092,100.896019 24.220240,104.844933 
	C24.489363,105.380119 24.758486,105.915306 24.830738,106.349503 
	C24.830738,106.349503 25.085243,106.622498 24.999777,106.820869 
	C24.999777,106.820869 25.182592,106.935905 25.167095,107.630989 
	C25.661108,108.661263 26.155121,109.691544 26.719854,111.395500 
	C28.134052,113.263451 29.548250,115.131409 31.052504,117.669334 
	C32.053787,119.126671 33.055073,120.584000 33.764847,122.470337 
	C35.014210,124.373932 36.263573,126.277534 37.749451,128.755676 
	C38.171848,129.165192 38.594250,129.574707 39.241913,130.614746 
	C46.096287,137.663483 53.417107,144.049423 63.103687,147.294022 
	C63.103687,147.294022 63.256145,147.255325 63.650513,147.818451 
	C64.086067,147.931305 64.521629,148.044144 65.337692,148.592209 
	C65.898705,148.706146 66.459724,148.820084 67.542961,149.434662 
	C78.498512,153.881439 89.984978,154.231750 102.301659,153.941727 
	C103.193878,153.686234 104.086105,153.430725 105.564812,152.948334 
	C106.185043,152.909103 106.805283,152.869873 108.247765,152.930695 
	C113.195938,152.272583 118.237968,151.980484 123.039200,150.749344 
	C124.628029,150.341949 125.596542,147.515457 126.991966,145.872711 
	C126.991966,145.872711 126.832405,145.839386 127.690575,145.956451 
	C129.771179,145.642654 132.265106,145.950455 133.852539,144.894928 
	C138.096695,142.072861 142.359634,139.040817 145.779160,135.323288 
	C147.348175,133.617554 151.442108,131.567398 148.563904,127.281654 
	C148.689590,126.968010 148.908615,126.746750 150.059494,126.828270 
	C154.917160,126.163094 155.045059,121.541069 156.964005,118.465645 
	C159.656647,114.150269 162.140961,109.704910 165.477493,104.013405 
	C165.325195,101.398529 165.063019,96.896843 164.719040,91.598724 
	C165.509857,85.059891 166.122070,78.493454 167.127243,71.987740 
	C169.497681,56.646000 166.663727,42.343929 158.968002,28.339769 
	C158.694214,27.889936 158.420441,27.440104 157.925034,26.331673 
	C156.241669,24.434340 154.558319,22.537004 152.735992,19.922070 
	C151.755966,18.952076 150.775925,17.982080 149.686020,16.359892 
	C148.125900,15.235781 146.565765,14.111670 145.000000,13.000821 
	C145.000000,13.000821 145.013351,12.993255 144.660187,12.366440 
	C142.042984,11.049013 139.425766,9.731586 136.808563,8.414159 
	C136.297226,8.976197 135.785904,9.538236 135.274582,10.100274 
	C136.226562,12.053464 137.178558,14.006655 138.121384,16.617245 
	C138.392868,17.199854 138.664337,17.782461 138.925079,19.002850 
	C138.278687,20.016525 137.632309,21.030201 136.319901,21.839588 
	C135.258072,21.325232 134.196243,20.810873 131.747650,19.624763 
	C132.317886,23.032459 132.036591,25.686888 133.181763,27.371809 
	C136.450226,32.180786 140.298813,36.595463 143.704987,41.768097 
	C144.179169,43.507088 144.653351,45.246082 145.000992,47.718441 
	C146.003723,49.475807 147.006454,51.233173 147.912003,53.844013 
	C148.336655,57.985996 148.761322,62.127975 149.123108,66.999565 
	C148.293854,70.563522 146.108047,73.661530 142.529770,72.736633 
	C140.815491,72.293541 139.661362,68.276794 138.977448,65.687363 
	C138.403503,63.514313 138.968475,61.060196 138.871552,58.737099 
	C138.697433,54.564659 138.405029,50.397163 138.162048,46.227604 
	C137.625519,45.990643 137.088989,45.753685 136.552475,45.516727 
	C134.992828,46.662415 133.433197,47.808105 131.267502,49.251572 
	C130.489746,51.168865 129.711990,53.086163 128.406494,55.445293 
	C128.313980,56.341503 128.221451,57.237713 128.041565,58.010536 
	C128.041565,58.010536 128.159958,58.104553 127.403893,58.151123 
	C126.143791,60.460846 124.883682,62.770569 123.103493,64.577255 
	C121.703598,62.795044 120.303703,61.012833 118.693596,58.687817 
	C118.338104,58.620098 117.982620,58.552383 117.580772,58.416927 
	C117.580772,58.416927 117.502419,58.441391 117.716583,57.765209 
	C115.845833,55.566158 114.238693,52.225677 110.163361,56.231590 
	C109.125885,56.207161 108.088417,56.182728 106.684258,55.608742 
	C105.454765,56.088699 104.225273,56.568653 102.766190,57.253292 
	C102.766190,57.253292 102.460609,57.218227 101.867744,57.227795 
	C101.576935,57.481606 101.286125,57.735420 100.999321,58.000786 
	C100.999321,58.000786 100.987755,57.992630 100.252434,58.032078 
	C96.914055,58.950539 93.575668,59.868996 89.996689,60.204151 
	C89.116615,59.772053 88.236549,59.339951 86.856758,58.891037 
	C86.690269,58.883255 86.523781,58.875477 86.113609,58.327259 
	C85.744789,58.236042 85.375969,58.144829 84.686508,57.842007 
	C84.686508,57.842007 84.304535,57.883003 83.898720,57.356251 
	C83.265694,57.247086 82.632660,57.137920 81.380630,56.803844 
	C79.902138,56.844444 78.422897,56.937649 76.945267,56.916927 
	C68.633034,56.800358 62.296589,62.715111 61.777916,71.837486 
	C63.180511,75.552559 64.583107,79.267632 66.290611,83.382309 
	C66.656723,85.109261 66.497383,87.272461 67.495506,88.474686 
	C69.751770,91.192307 72.619453,93.394531 75.166183,95.880440 
	C79.956512,100.556366 84.766373,105.216049 89.429405,110.017212 
	C92.168022,112.836960 94.489586,112.869865 97.425735,110.175957 
	C102.069717,105.915115 107.009613,101.976799 112.601250,97.956940 
	C117.621429,97.484428 118.674271,93.985840 118.964569,89.967316 
	C118.964569,89.967316 118.796799,89.825569 119.603851,89.917580 
	C123.723068,88.959526 121.630905,85.131042 122.941071,82.909019 
	C122.941071,82.909019 122.847733,82.924088 123.376976,82.730804 
	C123.513824,82.397804 123.650665,82.064804 123.843636,81.874512 
	C123.843636,81.874512 123.723427,81.779305 124.626205,81.908844 
	C125.836372,81.901718 127.046532,81.894592 128.613266,81.963402 
	C128.613266,81.963402 128.974915,82.009178 128.993454,82.877747 
	C129.292007,83.678238 129.590576,84.478722 129.701477,85.463951 
	C129.708878,85.686241 129.823975,85.795059 130.082077,86.563515 
	C131.765930,91.699791 133.449783,96.836067 134.987885,102.770355 
	C134.644867,104.851822 134.301849,106.933289 133.400467,109.327538 
	C132.070862,110.955154 130.741241,112.582764 128.581299,114.112877 
	C127.764977,115.186241 126.948654,116.259598 125.873001,117.785210 
	C125.150467,118.187256 124.427925,118.589310 122.603004,119.229500 
	C122.302658,119.455597 122.002312,119.681694 121.202591,119.756248 
	C121.103683,119.613152 121.004776,119.470055 121.499779,118.445969 
	C121.486664,117.515465 121.473549,116.584969 121.460434,115.654465 
	C119.092560,116.248199 116.694046,116.748985 114.381729,117.511261 
	C113.898399,117.670609 113.733200,118.794914 113.421410,119.474548 
	C115.007500,119.631523 116.591026,119.857346 118.180756,119.916473 
	C118.977249,119.946106 119.785034,119.671921 120.403351,120.006393 
	C120.240013,119.964272 120.076683,119.922157 119.251862,120.529305 
	C118.832336,120.980354 118.412811,121.431404 117.323402,122.156227 
	C115.028946,123.178955 112.734489,124.201683 109.749260,125.094597 
	C109.163055,125.390938 108.576843,125.687279 107.588974,126.263649 
	C107.280258,126.420143 106.961235,126.445137 105.736870,126.123192 
	C103.139442,126.953888 100.542023,127.784584 97.428146,128.619370 
	C97.286324,128.716949 97.144493,128.814545 96.337944,128.785675 
	C95.888657,128.757065 95.439369,128.728470 94.330612,128.241043 
	C90.558281,128.389038 86.785950,128.537048 82.336212,128.755295 
	C81.889839,128.812195 81.443474,128.869110 80.543770,128.699905 
	C80.375206,128.689941 80.206642,128.679993 79.810509,127.986038 
	C75.738533,127.054848 71.666565,126.123665 67.028770,125.118980 
	C66.344894,124.808304 65.661026,124.497627 64.902519,123.799629 
	C64.604904,123.810829 64.307289,123.822029 63.366302,123.818817 
	C62.244110,123.216797 61.121918,122.614777 59.673454,121.506561 
	C59.114002,121.340485 58.554546,121.174408 57.314621,120.859642 
	C53.885441,118.528290 50.456261,116.196930 47.021576,113.107361 
	C47.146004,111.909225 47.270432,110.711082 47.397316,109.489288 
	C51.507030,112.118935 55.265469,114.523804 59.690632,116.961189 
	C60.136536,116.951088 60.582436,116.940994 61.455456,117.507721 
	C64.285988,119.027077 68.078529,119.821548 69.313423,116.935112 
	C70.033302,115.252480 66.897942,111.889503 65.405716,109.335991 
	C65.243950,109.059181 64.473602,109.138023 63.312023,109.019356 
	C62.538261,108.679939 61.764500,108.340515 61.270550,107.898361 
	C61.180008,107.935295 61.089466,107.972229 60.453941,107.572144 
	C58.941761,106.391365 57.429577,105.210587 55.393951,103.690102 
	C54.866833,102.817116 54.339714,101.944130 54.375580,100.683289 
	C54.233082,99.764503 54.225651,98.799141 53.927399,97.934059 
	C50.577930,88.218834 45.391464,78.756767 50.779949,67.996078 
	C53.493061,66.653824 56.206173,65.311562 58.919285,63.969307 
	C58.978210,63.542732 59.037132,63.116158 59.096058,62.689583 
	C57.039879,62.098827 54.983700,61.508072 52.945621,60.227661 
	C53.293991,59.151627 53.642357,58.075588 54.636604,56.915714 
	C55.084854,56.269142 55.533104,55.622574 55.999870,55.000309 
	C55.999870,55.000309 55.975639,54.981228 56.739609,54.910320 
	C64.440048,54.747124 67.321793,47.616001 73.227921,44.034367 
	C71.793564,43.131958 70.850998,42.538960 70.032028,41.217850 
	C73.681915,39.462360 77.331802,37.706871 81.418762,36.499023 
	C82.610672,35.993107 83.802574,35.487194 85.816177,34.867062 
	C89.880371,34.594173 93.944572,34.321289 98.094276,34.684052 
	C98.747704,35.112556 99.401138,35.541065 100.832497,35.980690 
	C103.555199,36.656410 106.277901,37.332130 109.010284,38.755196 
	C111.014183,43.503952 113.357391,44.501919 118.997856,43.001007 
	C118.997856,43.001007 118.994400,43.020988 118.736725,43.611938 
	C118.477219,44.364811 118.217712,45.117683 117.740707,46.501553 
	C120.328690,45.754246 123.513184,48.569584 124.050583,43.802048 
	C124.262131,41.925243 125.643250,39.660213 121.975281,39.513107 
	C121.975281,39.513107 121.984779,39.021694 121.997185,38.509537 
	C121.998222,38.338928 121.999260,38.168320 122.301140,37.386505 
	C123.916847,35.659782 125.532555,33.933064 127.148262,32.206341 
	C126.837265,31.833883 126.526276,31.461422 126.215279,31.088963 
	C123.809181,32.392761 121.403076,33.696564 118.605812,34.451759 
	C115.707588,32.341331 115.340195,26.842169 109.559204,27.437792 
	C107.679840,26.984133 105.800476,26.530476 104.010773,26.047943 
	C104.010773,26.047943 103.926613,26.095766 103.946220,25.478456 
	C103.630905,24.987316 103.315590,24.496178 102.926826,23.299467 
	C101.257957,20.846518 100.070244,17.375547 95.154503,19.998617 
	C88.629684,19.665400 82.108376,19.188177 75.579315,19.029480 
	C62.698090,18.716389 52.376827,24.340420 43.712833,33.392872 
	C33.914719,43.630291 28.317780,55.711365 29.091400,70.084137 
	C29.605007,79.626205 31.672567,88.903175 36.758942,97.646034 
	C35.297279,97.777100 34.178692,97.877403 33.009933,97.982140 
	C33.009933,97.982140 33.024273,97.934128 32.872433,97.488937 
	C32.703640,97.198830 32.454403,97.022285 32.046295,96.986633 
	C32.046295,96.986633 32.029068,96.905388 31.866648,96.514626 
M88.168800,126.742485 
	C88.115936,126.585030 88.063065,126.427582 88.010193,126.270126 
	C87.958473,126.428574 87.906754,126.587029 88.168800,126.742485 
z"/>
<path fill="#1A3D9C" opacity="1.000000" stroke="none" 
	d="
M21.803360,93.958084 
	C21.631844,93.570480 21.460329,93.182884 21.716862,92.434418 
	C22.418289,92.032478 22.691669,91.991402 23.215544,91.800537 
	C23.808228,90.976715 24.150415,90.302696 24.549477,89.516655 
	C25.406239,90.033028 26.200733,90.511871 26.997107,90.995590 
	C26.998985,91.000458 27.005968,91.008049 26.921385,91.229485 
	C26.902815,91.964447 26.968830,92.477974 27.167162,93.320290 
	C30.115204,103.747643 38.719944,109.700729 45.447502,116.411270 
	C51.093494,122.042984 60.095840,124.338242 67.686623,127.954430 
	C68.594040,128.386719 69.968925,127.837738 71.430542,127.807602 
	C72.139778,127.948502 72.545601,128.025406 73.057053,128.476776 
	C75.768524,129.240021 78.374367,129.628799 81.279846,130.308701 
	C86.724258,130.402542 91.869057,130.205246 97.457840,130.006592 
	C101.945862,129.015503 105.989883,128.025787 110.361946,127.027954 
	C111.127144,127.002731 111.564316,126.985603 112.375153,126.979645 
	C113.851860,126.342842 114.954910,125.694862 116.441017,125.042267 
	C121.984192,122.049004 127.387810,119.390877 132.159836,115.875420 
	C133.640610,114.784576 133.407364,111.367065 133.958832,109.014755 
	C134.301849,106.933289 134.644867,104.851822 135.395203,102.310410 
	C136.010956,101.172234 136.556747,100.383362 136.376175,99.832672 
	C134.311798,93.537148 132.136826,87.277885 129.990280,80.539917 
	C129.141891,69.857986 130.794250,59.896156 133.426346,50.007473 
	C134.565399,51.249104 135.840424,52.442757 135.912430,53.705040 
	C136.166977,58.167152 135.289886,62.814465 136.247147,67.075882 
	C136.953568,70.220619 139.257996,74.235413 141.923035,75.392899 
	C145.090134,76.768425 148.740631,74.332870 150.873871,70.930275 
	C154.842651,64.599915 154.705032,57.471096 154.888901,50.428780 
	C154.909760,49.629997 153.717880,48.799545 152.986267,47.686562 
	C152.796844,46.979485 152.709503,46.569626 152.958557,46.018753 
	C154.806091,44.670326 156.495682,43.905575 154.552490,41.301250 
	C153.079498,39.327114 152.788177,36.471294 151.977417,33.616810 
	C151.187805,31.153936 150.294891,29.112589 149.629456,26.999599 
	C149.177338,25.563967 149.044159,24.027893 148.768372,22.536732 
	C150.176102,22.356190 151.583832,22.175650 153.138916,22.325905 
	C154.169403,24.927805 154.706680,27.586817 158.146652,26.990269 
	C158.420441,27.440104 158.694214,27.889936 158.763702,28.749390 
	C158.361176,29.437284 158.162964,29.715559 157.703705,30.123199 
	C157.958511,31.163309 158.474380,32.074051 159.139923,33.319618 
	C164.252899,46.701313 167.512970,59.953991 165.037445,74.097748 
	C163.139328,84.942528 162.693253,96.126282 156.693390,106.144791 
	C151.635971,107.798927 153.973419,112.035950 152.972198,115.372635 
	C152.266861,117.801140 151.606186,119.865189 150.605194,121.988907 
	C149.099716,122.952415 147.720963,123.679459 146.803238,124.788124 
	C139.682617,133.390091 131.779236,141.074280 121.262222,145.339859 
	C116.925079,147.098953 112.084335,147.603424 107.719902,149.310654 
	C94.898735,154.325882 82.466125,151.712402 69.929474,147.609558 
	C67.559700,146.828506 65.278290,146.425247 62.722752,145.887177 
	C61.622284,145.167358 60.795940,144.582367 59.969055,143.615646 
	C58.645847,142.506393 57.323181,141.778870 55.678139,141.015472 
	C54.557781,140.324539 53.759800,139.669464 52.811150,138.766754 
	C52.121403,138.357101 51.582336,138.195099 51.022659,138.016205 
	C51.002045,137.999298 50.959614,137.967010 50.928738,137.650085 
	C50.257870,136.908264 49.617878,136.483368 48.703163,135.921478 
	C47.604607,135.189072 46.780769,134.593643 45.967766,133.720093 
	C45.645035,132.996948 45.311470,132.551941 44.725433,132.081421 
	C44.304649,132.038940 44.136330,132.021973 43.871201,131.788605 
	C43.583469,131.301605 43.327213,131.126724 42.993408,131.033203 
	C42.981197,131.018845 42.952278,130.994675 42.857670,130.778107 
	C42.573147,130.290756 42.317547,130.115997 41.676910,130.020752 
	C40.932308,129.973419 40.507057,129.942642 40.037579,129.629395 
	C39.670097,128.904678 39.346844,128.462448 39.016075,128.011902 
	C39.008568,128.003601 38.994244,127.983833 38.996933,127.597649 
	C39.064972,123.850151 37.616093,121.936630 34.056355,122.041336 
	C33.055073,120.584000 32.053787,119.126671 31.023844,116.934555 
	C30.127264,112.761505 29.521328,109.227921 28.315107,105.912743 
	C27.189194,102.818298 25.425619,99.955849 23.940746,96.627609 
	C23.226969,95.495316 22.515163,94.726700 21.803360,93.958084 
z"/>
<path fill="#4199C3" opacity="1.000000" stroke="none" 
	d="
M53.812599,101.071144 
	C54.339714,101.944130 54.866833,102.817116 55.699982,104.210449 
	C58.300129,107.593781 60.594238,110.456764 63.453205,114.024666 
	C61.284420,113.903030 60.188728,113.841583 58.868504,113.534424 
	C55.380085,110.912704 52.116192,108.536682 49.233597,106.101952 
	C50.644917,105.817635 51.674934,105.592026 53.055790,105.289574 
	C41.015907,86.726234 40.304680,67.837418 52.375736,50.182014 
	C64.623337,32.268391 82.924484,26.584230 104.639946,31.525154 
	C104.067490,29.996325 104.021690,29.645519 103.830597,29.415321 
	C103.515587,29.035818 103.161743,28.610794 102.729279,28.417793 
	C88.521156,22.076899 74.530060,19.963604 59.965855,28.170052 
	C48.716583,34.508640 40.615955,42.531189 36.489361,55.212387 
	C32.341125,67.960083 33.308014,79.477310 39.847004,90.935997 
	C41.510643,93.851303 42.331131,97.247765 43.208725,100.339188 
	C41.815765,98.990685 40.624016,97.812683 39.709484,96.448814 
	C21.031054,68.593040 35.877907,30.263224 68.508125,22.083548 
	C79.196869,19.404112 89.624298,20.877958 100.108887,24.435013 
	C100.844818,24.845217 101.385551,25.043247 102.094604,25.476391 
	C102.817497,25.839594 103.372055,25.967680 103.926613,26.095766 
	C103.926613,26.095766 104.010773,26.047943 104.100159,26.327023 
	C105.043381,27.104866 105.897209,27.603628 106.867859,28.424376 
	C108.969673,30.212379 110.954681,31.678396 113.070648,33.399487 
	C113.808853,34.102486 114.416084,34.550415 115.027229,35.352619 
	C114.687599,36.285717 114.344055,36.864536 113.675049,37.360786 
	C112.903267,37.291210 112.456947,37.304203 111.763184,37.210693 
	C111.337555,37.081875 111.159378,37.059555 110.987152,37.023232 
	C110.993095,37.009220 110.962219,37.025097 110.775772,36.725765 
	C107.035767,35.357872 103.482216,34.289314 99.611801,33.166702 
	C98.866508,33.099533 98.438080,33.086411 97.737350,32.752445 
	C77.823090,29.882175 59.019550,39.822788 50.835136,57.674629 
	C44.025059,72.528763 44.269459,87.193260 53.812599,101.071144 
z"/>
<path fill="#DBF5FA" opacity="1.000000" stroke="none" 
	d="
M99.913689,24.222836 
	C89.624298,20.877958 79.196869,19.404112 68.508125,22.083548 
	C35.877907,30.263224 21.031054,68.593040 39.709484,96.448814 
	C40.624016,97.812683 41.815765,98.990685 43.229362,100.335938 
	C43.580303,100.416641 43.614365,100.439545 43.630135,100.769653 
	C45.397419,102.779411 47.148933,104.459076 48.887714,106.136856 
	C48.874977,106.134987 48.852299,106.160667 48.852299,106.160667 
	C52.116192,108.536682 55.380085,110.912704 58.841156,113.929146 
	C59.033527,115.355934 59.028717,116.142311 59.023911,116.928680 
	C55.265469,114.523804 51.507030,112.118935 47.397316,109.489288 
	C47.270432,110.711082 47.146004,111.909225 46.703030,113.429314 
	C44.895527,112.174500 43.406567,110.597733 42.254433,108.961395 
	C42.175289,107.030243 41.759312,105.158669 41.343334,103.287086 
	C40.566463,104.179008 39.789597,105.070938 38.681114,105.890976 
	C36.586372,103.205299 34.823238,100.591507 33.060104,97.977707 
	C34.178692,97.877403 35.297279,97.777100 36.758942,97.646034 
	C31.672567,88.903175 29.605007,79.626205 29.091400,70.084137 
	C28.317780,55.711365 33.914719,43.630291 43.712833,33.392872 
	C52.376827,24.340420 62.698090,18.716389 75.579315,19.029480 
	C82.108376,19.188177 88.629684,19.665400 95.791725,20.273413 
	C97.590530,21.773083 98.752113,22.997959 99.913689,24.222836 
M38.408600,100.484344 
	C38.408600,100.484344 38.524555,100.413216 38.408600,100.484344 
z"/>
<path fill="#5793CD" opacity="1.000000" stroke="none" 
	d="
M111.824280,97.901993 
	C107.009613,101.976799 102.069717,105.915115 97.425735,110.175957 
	C94.489586,112.869865 92.168022,112.836960 89.429405,110.017212 
	C84.766373,105.216049 79.956512,100.556366 75.166183,95.880440 
	C72.619453,93.394531 69.751770,91.192307 67.495506,88.474686 
	C66.497383,87.272461 66.656723,85.109261 66.151260,82.978638 
	C66.011909,82.574974 66.080017,82.172142 66.417038,82.146332 
	C67.205299,82.089211 67.656540,82.057915 68.358658,82.262505 
	C69.950089,85.581779 71.290649,88.665169 72.720322,91.953514 
	C74.355911,91.215454 75.669365,90.622757 76.992981,90.422318 
	C77.687096,92.994255 77.793312,95.681511 79.172043,97.250740 
	C82.298218,100.808868 85.986351,103.891426 89.590683,106.999573 
	C90.598518,107.868675 92.570534,108.989281 93.320511,108.576790 
	C101.162033,104.264000 108.885651,99.699211 110.468758,89.895767 
	C111.879265,89.496895 113.858406,89.538795 114.396103,88.679131 
	C116.515800,85.290131 118.027138,81.711319 116.064400,77.490990 
	C114.284935,73.664734 111.483597,71.921822 107.455086,70.870934 
	C102.483284,69.573959 99.201172,73.414398 95.005386,73.619415 
	C98.746445,68.437553 104.203232,66.350609 109.941734,68.316811 
	C115.822472,70.331734 118.830009,74.869293 119.163788,81.388618 
	C119.054649,83.484871 118.981560,85.291916 118.760361,87.282043 
	C118.673775,88.251938 118.735291,89.038750 118.796799,89.825569 
	C118.796799,89.825569 118.964569,89.967316 118.536293,89.904892 
	C116.013443,92.528984 113.918861,95.215492 111.824280,97.901993 
z"/>
<path fill="#CEF4FA" opacity="1.000000" stroke="none" 
	d="
M54.094090,100.877213 
	C44.269459,87.193260 44.025059,72.528763 50.835136,57.674629 
	C59.019550,39.822788 77.823090,29.882175 97.740311,32.996147 
	C98.015572,33.560696 98.008766,34.048401 98.008766,34.048401 
	C93.944572,34.321289 89.880371,34.594173 85.040199,34.921993 
	C83.170044,35.301743 82.075867,35.626560 80.981689,35.951378 
	C77.331802,37.706871 73.681915,39.462360 69.587326,41.590157 
	C61.928299,43.444553 58.725899,48.984245 55.975639,54.981228 
	C55.975639,54.981228 55.999870,55.000309 55.670124,55.033127 
	C54.890491,55.710480 54.440609,56.355015 53.990723,56.999550 
	C53.642357,58.075588 53.293991,59.151627 52.581619,60.656494 
	C51.471104,63.388836 50.724590,65.692345 49.978077,67.995857 
	C45.391464,78.756767 50.577930,88.218834 53.927399,97.934059 
	C54.225651,98.799141 54.233082,99.764503 54.094090,100.877213 
z"/>
<path fill="#344D82" opacity="1.000000" stroke="none" 
	d="
M70.017845,147.987366 
	C82.466125,151.712402 94.898735,154.325882 107.719902,149.310654 
	C112.084335,147.603424 116.925079,147.098953 121.262222,145.339859 
	C131.779236,141.074280 139.682617,133.390091 146.803238,124.788124 
	C147.720963,123.679459 149.099716,122.952415 150.713165,122.099922 
	C151.161423,122.151253 151.369431,122.378235 151.295319,122.714317 
	C150.554443,124.239563 149.887695,125.428726 149.220947,126.617889 
	C148.908615,126.746750 148.689590,126.968010 148.226654,127.635056 
	C140.870407,133.938766 133.851410,139.889084 126.832405,145.839386 
	C126.832405,145.839386 126.991966,145.872711 126.565247,145.891144 
	C119.900856,148.216583 113.663185,150.523605 107.425514,152.830627 
	C106.805283,152.869873 106.185043,152.909103 104.912262,153.013519 
	C103.362160,153.333893 102.464607,153.589081 101.567062,153.844254 
	C89.984978,154.231750 78.498512,153.881439 67.307465,148.906830 
	C68.053925,148.248444 69.035889,148.117905 70.017845,147.987366 
z"/>
<path fill="#304980" opacity="1.000000" stroke="none" 
	d="
M157.017365,106.012680 
	C162.693253,96.126282 163.139328,84.942528 165.037445,74.097748 
	C167.512970,59.953991 164.252899,46.701313 159.141144,32.981335 
	C158.650040,31.536760 158.307388,30.765301 157.964752,29.993835 
	C158.162964,29.715559 158.361176,29.437284 158.788895,29.038471 
	C166.663727,42.343929 169.497681,56.646000 167.127243,71.987740 
	C166.122070,78.493454 165.509857,85.059891 164.499832,92.301529 
	C159.976898,102.795631 155.673172,112.586937 151.369446,122.378235 
	C151.369431,122.378235 151.161423,122.151253 151.053467,122.040237 
	C151.606186,119.865189 152.266861,117.801140 153.283356,115.207184 
	C154.765228,111.789070 155.891312,108.900879 157.017365,106.012680 
z"/>
<path fill="#2E4883" opacity="1.000000" stroke="none" 
	d="
M153.088348,47.983780 
	C153.717880,48.799545 154.909760,49.629997 154.888901,50.428780 
	C154.705032,57.471096 154.842651,64.599915 150.873871,70.930275 
	C148.740631,74.332870 145.090134,76.768425 141.923035,75.392899 
	C139.257996,74.235413 136.953568,70.220619 136.247147,67.075882 
	C135.289886,62.814465 136.166977,58.167152 135.912430,53.705040 
	C135.840424,52.442757 134.565399,51.249104 133.294800,49.777588 
	C132.456161,49.338734 132.164856,49.146267 131.873566,48.953796 
	C133.433197,47.808105 134.992828,46.662415 136.552475,45.516727 
	C137.088989,45.753685 137.625519,45.990643 138.162048,46.227604 
	C138.405029,50.397163 138.697433,54.564659 138.871552,58.737099 
	C138.968475,61.060196 138.403503,63.514313 138.977448,65.687363 
	C139.661362,68.276794 140.815491,72.293541 142.529770,72.736633 
	C146.108047,73.661530 148.293854,70.563522 149.545273,66.597267 
	C151.007751,60.124573 152.048050,54.054176 153.088348,47.983780 
z"/>
<path fill="#2D4781" opacity="1.000000" stroke="none" 
	d="
M41.917610,109.020966 
	C43.406567,110.597733 44.895527,112.174500 46.705784,113.808418 
	C50.456261,116.196930 53.885441,118.528290 57.800327,121.200943 
	C58.857265,121.699081 59.428493,121.855919 59.999725,122.012764 
	C61.121918,122.614777 62.244110,123.216797 63.898552,124.000038 
	C64.612923,124.183159 64.795036,124.185051 64.977150,124.186951 
	C65.661026,124.497627 66.344894,124.808304 67.459320,125.467026 
	C68.968964,126.457909 70.048050,127.100746 71.127136,127.743591 
	C69.968925,127.837738 68.594040,128.386719 67.686623,127.954430 
	C60.095840,124.338242 51.093494,122.042984 45.447502,116.411270 
	C38.719944,109.700729 30.115204,103.747643 27.385433,93.172409 
	C27.316246,92.133171 27.161108,91.570610 27.005968,91.008049 
	C27.005968,91.008049 26.998985,91.000458 26.999535,90.608734 
	C26.951551,89.189293 26.903023,88.161568 26.878792,87.112106 
	C26.903091,87.090370 26.952219,87.047485 26.952217,87.047485 
	C28.297483,89.794212 29.642752,92.540947 31.082685,95.903763 
	C31.461258,96.648369 31.745163,96.776878 32.029068,96.905388 
	C32.029068,96.905388 32.046295,96.986633 32.142956,97.207329 
	C32.411968,97.734993 32.673519,97.903694 33.024273,97.934128 
	C33.024273,97.934128 33.009933,97.982140 33.035019,97.979919 
	C34.823238,100.591507 36.586372,103.205299 38.858734,106.139412 
	C40.217846,107.313469 41.067730,108.167221 41.917610,109.020966 
z"/>
<path fill="#BDD5EC" opacity="1.000000" stroke="none" 
	d="
M152.986267,47.686562 
	C152.048050,54.054176 151.007751,60.124573 149.576721,66.232468 
	C148.761322,62.127975 148.336655,57.985996 148.403870,53.480827 
	C151.690109,47.862068 149.789627,42.882206 147.747940,37.640934 
	C146.942520,35.259018 146.390945,33.131905 145.815063,30.691574 
	C145.492813,29.599918 145.194824,28.821474 145.258392,28.036327 
	C146.101837,28.013830 146.583725,27.998039 147.327789,28.201843 
	C148.427124,30.280905 149.264282,32.140369 150.085648,34.393860 
	C150.920624,38.578510 151.771408,42.369137 152.622162,46.159763 
	C152.709503,46.569626 152.796844,46.979485 152.986267,47.686562 
z"/>
<path fill="#2F497B" opacity="1.000000" stroke="none" 
	d="
M118.908463,87.098969 
	C118.981560,85.291916 119.054649,83.484871 119.537033,81.347534 
	C120.632332,79.348396 121.318344,77.679543 122.284737,75.738342 
	C123.724823,66.907745 118.626747,59.638691 110.819260,58.740440 
	C109.752480,58.661678 108.873146,58.828018 107.637772,58.997196 
	C105.851822,59.662228 104.421921,60.324417 102.773994,61.094749 
	C102.282608,61.400467 102.096649,61.660538 101.997246,61.990376 
	C101.996407,61.997646 101.981834,61.992836 101.595970,61.991982 
	C100.180183,61.991077 99.150253,61.991020 98.124321,61.658134 
	C99.081459,60.214413 100.034607,59.103519 100.987755,57.992630 
	C100.987755,57.992630 100.999321,58.000786 101.292557,57.977787 
	C101.877403,57.709267 102.169006,57.463745 102.460609,57.218227 
	C102.460609,57.218227 102.766190,57.253292 103.236969,57.173496 
	C104.822144,56.781898 105.936546,56.470097 107.050941,56.158295 
	C108.088417,56.182728 109.125885,56.207161 110.829163,56.433884 
	C113.497444,57.237911 115.499931,57.839653 117.502419,58.441391 
	C117.502419,58.441391 117.580772,58.416927 117.745926,58.673573 
	C118.241989,59.030354 118.572899,59.130489 118.903809,59.230625 
	C120.303703,61.012833 121.703598,62.795044 123.447189,65.170334 
	C123.768402,71.102043 123.745918,76.440674 123.723427,81.779305 
	C123.723427,81.779305 123.843636,81.874512 123.546066,81.905128 
	C123.114914,82.265190 122.981316,82.594635 122.847733,82.924088 
	C122.847733,82.924088 122.941071,82.909019 122.605072,83.025665 
	C121.148872,84.461197 120.028671,85.780083 118.908463,87.098969 
z"/>
<path fill="#2A458E" opacity="1.000000" stroke="none" 
	d="
M150.101440,33.999832 
	C149.264282,32.140369 148.427124,30.280905 147.250183,27.866325 
	C145.209534,24.699757 143.508652,22.088305 141.826324,19.273743 
	C141.579147,18.982628 141.313416,18.894625 140.786148,18.729080 
	C139.995010,18.556051 139.465424,18.460562 138.935822,18.365070 
	C138.664337,17.782461 138.392868,17.199854 138.387634,16.153484 
	C139.047043,14.592910 139.440186,13.496097 139.821579,12.432032 
	C141.569672,12.620997 143.291504,12.807126 145.013351,12.993255 
	C145.013351,12.993255 145.000000,13.000821 145.036835,13.342155 
	C146.647751,14.793020 148.221832,15.902553 149.795898,17.012085 
	C150.775925,17.982080 151.755966,18.952076 152.847900,20.504202 
	C152.990417,21.388559 153.001007,21.691484 152.991562,21.995110 
	C151.583832,22.175650 150.176102,22.356190 148.768372,22.536732 
	C149.044159,24.027893 149.177338,25.563967 149.629456,26.999599 
	C150.294891,29.112589 151.187805,31.153936 151.666214,33.614540 
	C150.932892,34.002129 150.517181,34.000977 150.101440,33.999832 
z"/>
<path fill="#F0F6F8" opacity="1.000000" stroke="none" 
	d="
M151.295319,122.714325 
	C155.673172,112.586937 159.976898,102.795631 164.540741,92.699745 
	C165.063019,96.896843 165.325195,101.398529 165.477493,104.013405 
	C162.140961,109.704910 159.656647,114.150269 156.964005,118.465645 
	C155.045059,121.541069 154.917160,126.163094 149.640213,126.723076 
	C149.887695,125.428726 150.554443,124.239563 151.295319,122.714325 
z"/>
<path fill="#1D3D90" opacity="1.000000" stroke="none" 
	d="
M145.839355,31.004787 
	C146.390945,33.131905 146.942520,35.259018 147.710541,38.005852 
	C146.089935,41.109364 150.183990,45.579403 145.127533,46.985073 
	C144.653351,45.246082 144.179169,43.507088 143.825867,41.082325 
	C140.953903,35.256519 137.961044,30.116489 134.812912,24.709785 
	C137.078049,24.709785 138.649536,24.709785 140.205170,24.718849 
	C140.189316,24.727915 140.207062,24.754675 140.165588,25.113817 
	C142.029205,27.316902 143.934296,29.160845 145.839355,31.004787 
z"/>
<path fill="#30497E" opacity="1.000000" stroke="none" 
	d="
M131.570526,49.102684 
	C132.164856,49.146267 132.456161,49.338734 132.879028,49.761086 
	C130.794250,59.896156 129.141891,69.857986 129.881027,80.761414 
	C129.572586,81.731750 129.306610,81.917496 128.974915,82.009178 
	C128.974915,82.009178 128.613266,81.963402 128.446136,81.498550 
	C128.239334,73.390648 128.199646,65.747597 128.159958,58.104553 
	C128.159958,58.104553 128.041565,58.010536 128.329529,57.838074 
	C128.723083,56.778225 128.828674,55.890842 128.934250,55.003460 
	C129.711990,53.086163 130.489746,51.168865 131.570526,49.102684 
z"/>
<path fill="#F7FEFC" opacity="1.000000" stroke="none" 
	d="
M56.357624,54.945774 
	C58.725899,48.984245 61.928299,43.444553 69.525528,41.954208 
	C70.850998,42.538960 71.793564,43.131958 73.227921,44.034367 
	C67.321793,47.616001 64.440048,54.747124 56.357624,54.945774 
z"/>
<path fill="#354B83" opacity="1.000000" stroke="none" 
	d="
M133.679657,109.171143 
	C133.407364,111.367065 133.640610,114.784576 132.159836,115.875420 
	C127.387810,119.390877 121.984192,122.049004 116.103119,125.051758 
	C114.255272,125.700050 113.128372,126.334259 112.001480,126.968475 
	C111.564316,126.985603 111.127144,127.002731 110.351501,126.781868 
	C110.013023,126.543877 110.011681,126.052055 110.134392,125.853226 
	C110.257103,125.654396 110.440033,125.224411 110.440033,125.224411 
	C112.734489,124.201683 115.028946,123.178955 117.960304,122.100945 
	C119.116173,121.745903 119.635139,121.446144 120.462433,121.034363 
	C120.783936,120.536011 120.797104,120.149696 120.810272,119.763382 
	C120.524834,119.812393 120.239388,119.861412 119.936768,119.915527 
	C119.919586,119.920631 119.913345,119.880035 119.913345,119.880035 
	C120.076683,119.922157 120.240013,119.964272 120.506256,119.747574 
	C120.609169,119.488754 120.905869,119.326958 120.905869,119.326958 
	C121.004776,119.470055 121.103683,119.613152 121.633530,119.939926 
	C122.611443,119.746185 123.158417,119.368774 123.705383,118.991364 
	C124.427925,118.589310 125.150467,118.187256 126.319626,117.460808 
	C127.648041,116.161064 128.529846,115.185730 129.411621,114.210388 
	C130.741241,112.582764 132.070862,110.955154 133.679657,109.171143 
z"/>
<path fill="#F0F6F8" opacity="1.000000" stroke="none" 
	d="
M127.261490,145.897919 
	C133.851410,139.889084 140.870407,133.938766 148.184021,127.869606 
	C151.442108,131.567398 147.348175,133.617554 145.779160,135.323288 
	C142.359634,139.040817 138.096695,142.072861 133.852539,144.894928 
	C132.265106,145.950455 129.771179,145.642654 127.261490,145.897919 
z"/>
<path fill="#1D3D98" opacity="1.000000" stroke="none" 
	d="
M66.080017,82.172142 
	C66.080017,82.172142 66.011909,82.574974 65.998810,82.778839 
	C64.583107,79.267632 63.180511,75.552559 62.191757,71.367508 
	C64.728889,68.584198 66.852188,66.270866 68.991280,64.346664 
	C69.337593,66.490082 69.668121,68.244370 69.719360,70.205681 
	C66.945396,73.939735 65.166389,77.671249 66.080017,82.172142 
z"/>
<path fill="#344A7E" opacity="1.000000" stroke="none" 
	d="
M140.221024,24.709785 
	C138.649536,24.709785 137.078049,24.709785 134.812912,24.709785 
	C137.961044,30.116489 140.953903,35.256519 143.932953,40.780907 
	C140.298813,36.595463 136.450226,32.180786 133.181763,27.371809 
	C132.036591,25.686888 132.317886,23.032459 131.747650,19.624763 
	C134.196243,20.810873 135.258072,21.325232 136.854828,22.168493 
	C138.333496,23.234859 139.277267,23.972322 140.221024,24.709785 
z"/>
<path fill="#344D82" opacity="1.000000" stroke="none" 
	d="
M43.968014,132.004990 
	C44.136330,132.021973 44.304649,132.038940 44.751251,132.361572 
	C45.338669,133.110901 45.647800,133.554565 45.956932,133.998230 
	C46.780769,134.593643 47.604607,135.189072 48.751812,136.231216 
	C49.703323,137.107635 50.331467,137.537323 50.959614,137.967010 
	C50.959614,137.967010 51.002045,137.999298 51.178139,138.256134 
	C51.890095,138.680115 52.425957,138.847260 52.961823,139.014404 
	C53.759800,139.669464 54.557781,140.324539 55.865417,141.273102 
	C57.573250,142.376862 58.771423,143.187103 59.969597,143.997360 
	C60.795940,144.582367 61.622284,145.167358 62.713913,146.206024 
	C62.968273,146.872223 62.957348,147.084763 62.946426,147.297287 
	C53.417107,144.049423 46.096287,137.663483 39.165527,130.263672 
	C39.089138,129.912582 39.161762,129.841064 39.390091,129.880615 
	C39.618423,129.920151 40.081806,129.911865 40.081806,129.911865 
	C40.507057,129.942642 40.932308,129.973419 41.782051,130.229004 
	C42.396076,130.715500 42.644653,130.895798 42.952278,130.994675 
	C42.952278,130.994675 42.981197,131.018845 43.098202,131.242310 
	C43.408585,131.725830 43.659523,131.905579 43.968014,132.004990 
z"/>
<path fill="#DBF5FA" opacity="1.000000" stroke="none" 
	d="
M115.023315,34.998344 
	C114.416084,34.550415 113.808853,34.102486 113.062828,33.056839 
	C111.937035,30.989693 110.950035,29.520267 109.969635,28.041773 
	C109.976234,28.032703 109.988914,28.016329 109.988914,28.016329 
	C115.340195,26.842169 115.707588,32.341331 118.924721,35.002354 
	C119.827255,36.369102 120.410881,37.185253 121.102158,38.221481 
	C121.408302,38.714855 121.666626,38.908234 121.984779,39.021694 
	C121.984779,39.021694 121.975281,39.513107 121.844849,40.059189 
	C120.807747,41.410507 119.901077,42.215748 118.994400,43.020988 
	C118.994400,43.020988 118.997856,43.001007 118.755844,42.724438 
	C115.846817,41.721241 112.448715,42.090553 111.985168,37.891708 
	C111.999931,37.700535 112.010635,37.317196 112.010635,37.317192 
	C112.456947,37.304203 112.903267,37.291210 113.734909,37.683578 
	C115.429016,39.086029 116.737778,40.083115 118.046547,41.080200 
	C118.407799,40.612476 118.769058,40.144753 119.130310,39.677029 
	C117.761314,38.117470 116.392311,36.557907 115.023315,34.998344 
z"/>
<path fill="#294278" opacity="1.000000" stroke="none" 
	d="
M68.975487,63.957542 
	C66.852188,66.270866 64.728889,68.584198 62.253696,70.943642 
	C62.296589,62.715111 68.633034,56.800358 76.945267,56.916927 
	C78.422897,56.937649 79.902138,56.844444 81.691765,57.157234 
	C82.002899,57.510628 82.007439,57.992531 81.995583,58.004929 
	C81.983727,58.017330 81.960297,58.042397 81.552658,58.034721 
	C76.926918,59.271435 71.617325,57.853424 68.992844,63.243515 
	C68.984406,63.481453 68.975487,63.957539 68.975487,63.957542 
z"/>
<path fill="#E3F1F7" opacity="1.000000" stroke="none" 
	d="
M127.781921,58.127838 
	C128.199646,65.747597 128.239334,73.390648 128.267853,81.460579 
	C127.046532,81.894592 125.836372,81.901718 124.174820,81.844070 
	C123.745918,76.440674 123.768402,71.102043 123.707230,65.421852 
	C124.883682,62.770569 126.143791,60.460846 127.781921,58.127838 
z"/>
<path fill="#263F79" opacity="1.000000" stroke="none" 
	d="
M128.984192,82.443466 
	C129.306610,81.917496 129.572586,81.731750 129.882111,81.230446 
	C132.136826,87.277885 134.311798,93.537148 136.376175,99.832672 
	C136.556747,100.383362 136.010956,101.172234 135.468079,101.911407 
	C133.449783,96.836067 131.765930,91.699791 130.057220,86.086823 
	C130.032364,85.610130 129.889130,85.279213 129.889130,85.279213 
	C129.590576,84.478722 129.292007,83.678238 128.984192,82.443466 
z"/>
<path fill="#E5F1F6" opacity="1.000000" stroke="none" 
	d="
M21.068848,72.077675 
	C21.068848,70.634270 21.068848,69.190857 21.068848,67.403839 
	C26.732290,69.569016 28.549324,72.817680 26.511421,78.351273 
	C25.859196,80.122284 26.742384,82.458755 26.517578,84.796204 
	C25.665541,83.703285 25.218996,82.350677 24.781935,80.618767 
	C23.550562,77.518867 22.309706,74.798271 21.068848,72.077675 
z"/>
<path fill="#415179" opacity="1.000000" stroke="none" 
	d="
M21.059708,72.057907 
	C22.309706,74.798271 23.550562,77.518867 24.427162,80.629257 
	C21.058628,81.624420 21.678524,83.243797 22.949387,85.473358 
	C22.962635,87.919960 22.963840,89.935150 22.965048,91.950333 
	C22.691669,91.991402 22.418289,92.032478 21.732016,92.113312 
	C20.988823,89.035995 20.658525,85.918930 20.378963,82.019051 
	C20.648420,78.177475 20.867142,75.118721 21.085863,72.059959 
	C21.085863,72.059959 21.050566,72.038132 21.059708,72.057907 
z"/>
<path fill="#2A4786" opacity="1.000000" stroke="none" 
	d="
M23.942719,96.991287 
	C25.425619,99.955849 27.189194,102.818298 28.315107,105.912743 
	C29.521328,109.227921 30.127264,112.761505 30.978817,116.599564 
	C29.548250,115.131409 28.134052,113.263451 26.779234,110.662918 
	C26.286606,108.932190 25.734598,107.934044 25.182592,106.935905 
	C25.182592,106.935905 24.999777,106.820869 25.035236,106.691849 
	C25.070694,106.562820 25.027611,106.450493 25.027611,106.450493 
	C24.758486,105.915306 24.489363,105.380119 24.403109,104.174110 
	C24.371559,101.332619 24.157139,99.161957 23.942719,96.991287 
z"/>
<path fill="#F0F6F8" opacity="1.000000" stroke="none" 
	d="
M107.836639,152.880661 
	C113.663185,150.523605 119.900856,148.216583 126.493591,145.852295 
	C125.596542,147.515457 124.628029,150.341949 123.039200,150.749344 
	C118.237968,151.980484 113.195938,152.272583 107.836639,152.880661 
z"/>
<path fill="#DBF5FA" opacity="1.000000" stroke="none" 
	d="
M63.985542,109.051895 
	C64.473602,109.138023 65.243950,109.059181 65.405716,109.335991 
	C66.897942,111.889503 70.033302,115.252480 69.313423,116.935112 
	C68.078529,119.821548 64.285988,119.027077 61.460060,116.964279 
	C62.905609,115.786186 64.346550,115.151535 65.831207,114.497627 
	C65.123238,112.408714 64.554390,110.730309 63.985542,109.051895 
z"/>
<path fill="#CEF4FA" opacity="1.000000" stroke="none" 
	d="
M63.648785,109.035629 
	C64.554390,110.730309 65.123238,112.408714 65.831207,114.497627 
	C64.346550,115.151535 62.905609,115.786186 61.246506,116.675865 
	C60.582436,116.940994 60.136536,116.951088 59.357269,116.944931 
	C59.028717,116.142311 59.033527,115.355934 59.065685,114.174850 
	C60.188728,113.841583 61.284420,113.903030 63.453205,114.024666 
	C60.594238,110.456764 58.300129,107.593781 55.961704,104.380310 
	C57.429577,105.210587 58.941761,106.391365 60.727104,107.785934 
	C61.000267,107.999718 60.990738,108.001091 60.990738,108.001091 
	C61.764500,108.340515 62.538261,108.679939 63.648785,109.035629 
z"/>
<path fill="#394F84" opacity="1.000000" stroke="none" 
	d="
M145.064270,47.351757 
	C150.183990,45.579403 146.089935,41.109364 147.964386,38.260651 
	C149.789627,42.882206 151.690109,47.862068 148.452454,53.054089 
	C147.006454,51.233173 146.003723,49.475807 145.064270,47.351757 
z"/>
<path fill="#F7FEFC" opacity="1.000000" stroke="none" 
	d="
M50.379013,67.995972 
	C50.724590,65.692345 51.471104,63.388836 52.572567,61.001320 
	C54.983700,61.508072 57.039879,62.098827 59.096058,62.689583 
	C59.037132,63.116158 58.978210,63.542732 58.919285,63.969307 
	C56.206173,65.311562 53.493061,66.653824 50.379013,67.995972 
z"/>
<path fill="#D4E8F3" opacity="1.000000" stroke="none" 
	d="
M140.205170,24.718849 
	C139.277267,23.972322 138.333496,23.234859 137.187836,22.270638 
	C137.632309,21.030201 138.278687,20.016525 138.930450,18.683960 
	C139.465424,18.460562 139.995010,18.556051 140.928467,18.950626 
	C141.490814,19.325424 141.649292,19.401138 141.807785,19.476852 
	C143.508652,22.088305 145.209534,24.699757 146.988007,27.646729 
	C146.583725,27.998039 146.101837,28.013830 144.982788,27.870903 
	C142.966095,26.726345 141.586578,25.740511 140.207062,24.754675 
	C140.207062,24.754675 140.189316,24.727915 140.205170,24.718849 
z"/>
<path fill="#3C4E79" opacity="1.000000" stroke="none" 
	d="
M144.836761,12.679848 
	C143.291504,12.807126 141.569672,12.620997 139.821579,12.432032 
	C139.440186,13.496097 139.047043,14.592910 138.392212,15.824783 
	C137.178558,14.006655 136.226562,12.053464 135.274582,10.100274 
	C135.785904,9.538236 136.297226,8.976197 136.808563,8.414159 
	C139.425766,9.731586 142.042984,11.049013 144.836761,12.679848 
z"/>
<path fill="#DCE9F3" opacity="1.000000" stroke="none" 
	d="
M100.620094,58.012352 
	C100.034607,59.103519 99.081459,60.214413 97.941566,61.937225 
	C95.991440,63.639301 94.228058,64.729454 92.426109,65.476273 
	C91.557846,63.788727 90.728149,62.444519 89.982224,61.021072 
	C90.065987,60.941833 90.237282,60.787449 90.237282,60.787453 
	C93.575668,59.868996 96.914055,58.950539 100.620094,58.012352 
z"/>
<path fill="#F9FCF3" opacity="1.000000" stroke="none" 
	d="
M121.202820,118.886459 
	C120.905869,119.326958 120.609169,119.488754 120.598442,119.511948 
	C119.785034,119.671921 118.977249,119.946106 118.180756,119.916473 
	C116.591026,119.857346 115.007500,119.631523 113.421402,119.474548 
	C113.733200,118.794914 113.898399,117.670609 114.381729,117.511261 
	C116.694046,116.748985 119.092560,116.248199 121.460434,115.654465 
	C121.473549,116.584969 121.486664,117.515465 121.202820,118.886459 
z"/>
<path fill="#254077" opacity="1.000000" stroke="none" 
	d="
M97.013847,130.007965 
	C91.869057,130.205246 86.724258,130.402542 81.285980,130.035736 
	C80.994019,129.289780 80.995560,129.107895 80.997101,128.926010 
	C81.443474,128.869110 81.889839,128.812195 83.118851,128.851105 
	C87.597694,128.864563 91.293884,128.782211 94.990082,128.699860 
	C95.439369,128.728470 95.888657,128.757065 96.671082,129.122894 
	C97.007416,129.642715 97.010628,129.825333 97.013847,130.007965 
z"/>
<path fill="#E3F1F7" opacity="1.000000" stroke="none" 
	d="
M112.212769,97.929474 
	C113.918861,95.215492 116.013443,92.528984 118.466057,89.820473 
	C118.674271,93.985840 117.621429,97.484428 112.212769,97.929474 
z"/>
<path fill="#F6FDFA" opacity="1.000000" stroke="none" 
	d="
M118.865562,43.316467 
	C119.901077,42.215748 120.807747,41.410507 121.844452,40.304939 
	C125.643250,39.660213 124.262131,41.925243 124.050583,43.802048 
	C123.513184,48.569584 120.328690,45.754246 117.740707,46.501553 
	C118.217712,45.117683 118.477219,44.364811 118.865562,43.316467 
z"/>
<path fill="#CEF4FA" opacity="1.000000" stroke="none" 
	d="
M99.928665,33.220753 
	C103.482216,34.289314 107.035767,35.357872 110.485703,36.756432 
	C109.921593,37.393570 109.461098,37.700710 109.000603,38.007851 
	C106.277901,37.332130 103.555199,36.656410 100.430435,35.631836 
	C99.995140,34.595570 99.961906,33.908161 99.928665,33.220753 
z"/>
<path fill="#F6FDFA" opacity="1.000000" stroke="none" 
	d="
M109.005447,38.381523 
	C109.461098,37.700710 109.921593,37.393570 110.672150,37.055763 
	C110.962219,37.025097 110.993095,37.009220 111.093979,37.246086 
	C111.398911,37.753334 111.657433,37.953308 111.970413,38.082882 
	C112.448715,42.090553 115.846817,41.721241 118.745697,42.724060 
	C113.357391,44.501919 111.014183,43.503952 109.005447,38.381523 
z"/>
<path fill="#E5F1F6" opacity="1.000000" stroke="none" 
	d="
M20.707359,72.103394 
	C20.867142,75.118721 20.648420,78.177475 20.283710,81.613960 
	C17.014931,79.473320 17.085243,75.851631 20.707359,72.103394 
z"/>
<path fill="#F9FDFD" opacity="1.000000" stroke="none" 
	d="
M120.994507,38.001408 
	C120.410881,37.185253 119.827255,36.369102 119.120300,35.276657 
	C121.403076,33.696564 123.809181,32.392761 126.215279,31.088963 
	C126.526276,31.461422 126.837265,31.833883 127.148262,32.206341 
	C125.532555,33.933064 123.916847,35.659782 121.899277,37.692879 
	C121.329773,37.999973 121.162140,38.000690 120.994507,38.001408 
z"/>
<path fill="#D9E7F5" opacity="1.000000" stroke="none" 
	d="
M71.430542,127.807602 
	C70.048050,127.100746 68.968964,126.457909 67.742233,125.503769 
	C71.666565,126.123665 75.738533,127.054848 79.536728,128.475327 
	C77.159111,128.677170 75.055267,128.389740 72.951424,128.102295 
	C72.545601,128.025406 72.139778,127.948502 71.430542,127.807602 
z"/>
<path fill="#2D478B" opacity="1.000000" stroke="none" 
	d="
M33.910599,122.255836 
	C37.616093,121.936630 39.064972,123.850151 38.625130,127.635635 
	C38.004738,128.100250 37.758835,128.140686 37.512932,128.181137 
	C36.263573,126.277534 35.014210,124.373932 33.910599,122.255836 
z"/>
<path fill="#2F4983" opacity="1.000000" stroke="none" 
	d="
M97.457840,130.006592 
	C97.010628,129.825333 97.007416,129.642715 97.003433,129.186127 
	C97.144493,128.814545 97.286324,128.716949 98.070267,128.791046 
	C101.352226,128.088013 103.992065,127.213326 106.631912,126.338631 
	C106.961235,126.445137 107.280258,126.420143 108.124542,126.173798 
	C109.110634,126.073318 109.561157,126.062691 110.011681,126.052063 
	C110.011681,126.052055 110.013023,126.543877 110.023468,126.789963 
	C105.989883,128.025787 101.945862,129.015503 97.457840,130.006592 
z"/>
<path fill="#F7FEFC" opacity="1.000000" stroke="none" 
	d="
M100.108887,24.435011 
	C98.752113,22.997959 97.590530,21.773083 96.210190,20.284863 
	C100.070244,17.375547 101.257957,20.846518 102.718124,23.793482 
	C102.315041,24.605423 102.120659,24.923349 101.926277,25.241276 
	C101.385551,25.043247 100.844818,24.845217 100.108887,24.435011 
z"/>
<path fill="#D9E7F5" opacity="1.000000" stroke="none" 
	d="
M106.184387,126.230911 
	C103.992065,127.213326 101.352226,128.088013 98.328491,128.789001 
	C100.542023,127.784584 103.139442,126.953888 106.184387,126.230911 
z"/>
<path fill="#E3F1F7" opacity="1.000000" stroke="none" 
	d="
M118.760368,87.282043 
	C120.028671,85.780083 121.148872,84.461197 122.571045,82.992851 
	C121.630905,85.131042 123.723068,88.959526 119.200325,89.871574 
	C118.735291,89.038750 118.673775,88.251938 118.760368,87.282043 
z"/>
<path fill="#415179" opacity="1.000000" stroke="none" 
	d="
M23.940746,96.627609 
	C24.157139,99.161957 24.371559,101.332619 24.363495,103.721481 
	C23.340092,100.896019 22.539171,97.852371 21.770803,94.383408 
	C22.515163,94.726700 23.226969,95.495316 23.940746,96.627609 
z"/>
<path fill="#304980" opacity="1.000000" stroke="none" 
	d="
M153.138916,22.325905 
	C153.001007,21.691484 152.990417,21.388559 152.917389,20.863003 
	C154.558319,22.537004 156.241669,24.434340 158.035843,26.660971 
	C154.706680,27.586817 154.169403,24.927805 153.138916,22.325905 
z"/>
<path fill="#2D4781" opacity="1.000000" stroke="none" 
	d="
M22.937347,85.041939 
	C21.678524,83.243797 21.058628,81.624420 24.417679,81.008560 
	C25.218996,82.350677 25.665541,83.703285 26.451252,85.212227 
	C26.798836,85.744370 26.807255,86.120186 26.883945,86.771744 
	C26.952219,87.047485 26.903091,87.090370 26.569374,87.034775 
	C25.136221,86.333435 24.036785,85.687683 22.937347,85.041939 
z"/>
<path fill="#DCE9F3" opacity="1.000000" stroke="none" 
	d="
M117.609497,58.103302 
	C115.499931,57.839653 113.497444,57.237911 111.218506,56.418404 
	C114.238693,52.225677 115.845833,55.566158 117.609497,58.103302 
z"/>
<path fill="#2D478B" opacity="1.000000" stroke="none" 
	d="
M63.025055,147.295654 
	C62.957348,147.084763 62.968273,146.872223 62.988037,146.340836 
	C65.278290,146.425247 67.559700,146.828506 69.929474,147.609558 
	C69.035889,148.117905 68.053925,148.248444 67.046356,148.656494 
	C66.459724,148.820084 65.898705,148.706146 64.955475,148.086243 
	C64.134224,147.471954 63.695183,147.363632 63.256145,147.255325 
	C63.256145,147.255325 63.103687,147.294022 63.025055,147.295654 
z"/>
<path fill="#D9E7F5" opacity="1.000000" stroke="none" 
	d="
M94.660347,128.470459 
	C91.293884,128.782211 87.597694,128.864563 83.457558,128.815979 
	C86.785950,128.537048 90.558281,128.389038 94.660347,128.470459 
z"/>
<path fill="#2D4781" opacity="1.000000" stroke="none" 
	d="
M73.057053,128.476776 
	C75.055267,128.389740 77.159111,128.677170 79.650513,128.817322 
	C80.206642,128.679993 80.375206,128.689941 80.770432,128.812958 
	C80.995560,129.107895 80.994019,129.289780 80.986351,129.744614 
	C78.374367,129.628799 75.768524,129.240021 73.057053,128.476776 
z"/>
<path fill="#294278" opacity="1.000000" stroke="none" 
	d="
M84.304535,57.883003 
	C84.304535,57.883003 84.686508,57.842007 85.011627,58.169979 
	C85.676933,58.621204 86.017120,58.744453 86.357300,58.867702 
	C86.523781,58.875477 86.690269,58.883255 87.034531,59.024338 
	C87.212303,59.157639 87.206627,59.445972 87.138412,59.845032 
	C87.030739,60.510857 86.991295,60.777615 86.712799,61.035366 
	C86.473755,61.026363 85.995346,61.032646 85.651215,60.987587 
	C84.191490,59.975819 83.075890,59.009109 81.960297,58.042397 
	C81.960297,58.042397 81.983727,58.017330 82.378326,58.004875 
	C83.283470,57.955944 83.793999,57.919476 84.304535,57.883003 
z"/>
<path fill="#3C4E79" opacity="1.000000" stroke="none" 
	d="
M149.740967,16.685989 
	C148.221832,15.902553 146.647751,14.793020 145.039658,13.335524 
	C146.565765,14.111670 148.125900,15.235781 149.740967,16.685989 
z"/>
<path fill="#F6FDFA" opacity="1.000000" stroke="none" 
	d="
M81.200226,36.225201 
	C82.075867,35.626560 83.170044,35.301743 84.629349,34.979103 
	C83.802574,35.487194 82.610672,35.993107 81.200226,36.225201 
z"/>
<path fill="#DBF5FA" opacity="1.000000" stroke="none" 
	d="
M106.751045,28.102390 
	C105.897209,27.603628 105.043381,27.104866 104.055328,26.341461 
	C105.800476,26.530476 107.679840,26.984133 109.774063,27.727060 
	C109.988914,28.016329 109.976234,28.032703 109.569519,28.026993 
	C108.358879,28.048319 107.554962,28.075354 106.751045,28.102390 
z"/>
<path fill="#DAE7F2" opacity="1.000000" stroke="none" 
	d="
M128.996460,114.161636 
	C128.529846,115.185730 127.648041,116.161064 126.449287,117.234680 
	C126.948654,116.259598 127.764977,115.186241 128.996460,114.161636 
z"/>
<path fill="#DCE9F3" opacity="1.000000" stroke="none" 
	d="
M106.867599,55.883522 
	C105.936546,56.470097 104.822144,56.781898 103.351761,57.071156 
	C104.225273,56.568653 105.454765,56.088699 106.867599,55.883522 
z"/>
<path fill="#415179" opacity="1.000000" stroke="none" 
	d="
M25.174843,107.283447 
	C25.734598,107.934044 26.286606,108.932190 26.743874,110.326073 
	C26.155121,109.691544 25.661108,108.661263 25.174843,107.283447 
z"/>
<path fill="#F6FDFA" opacity="1.000000" stroke="none" 
	d="
M99.611801,33.166702 
	C99.961906,33.908161 99.995140,34.595570 100.041473,35.626274 
	C99.401138,35.541065 98.747704,35.112556 98.051521,34.366226 
	C98.008766,34.048401 98.015572,33.560696 98.012611,33.316994 
	C98.438080,33.086411 98.866508,33.099533 99.611801,33.166702 
z"/>
<path fill="#DCE9F3" opacity="1.000000" stroke="none" 
	d="
M87.206627,59.445976 
	C87.206627,59.445972 87.212303,59.157639 87.284393,59.032745 
	C88.236549,59.339951 89.116615,59.772053 90.116989,60.495800 
	C90.237282,60.787449 90.065987,60.941833 89.687035,60.896912 
	C88.607597,60.383316 87.907112,59.914646 87.206627,59.445976 
z"/>
<path fill="#F7FEFC" opacity="1.000000" stroke="none" 
	d="
M54.313663,56.957634 
	C54.440609,56.355015 54.890491,55.710480 55.660866,55.020973 
	C55.533104,55.622574 55.084854,56.269142 54.313663,56.957634 
z"/>
<path fill="#DBF5FA" opacity="1.000000" stroke="none" 
	d="
M102.094604,25.476391 
	C102.120659,24.923349 102.315041,24.605423 102.754852,24.146267 
	C103.315590,24.496178 103.630905,24.987316 103.936417,25.787111 
	C103.372055,25.967680 102.817497,25.839594 102.094604,25.476391 
z"/>
<path fill="#F0F6F8" opacity="1.000000" stroke="none" 
	d="
M101.934357,153.892990 
	C102.464607,153.589081 103.362160,153.333893 104.619019,153.126984 
	C104.086105,153.430725 103.193878,153.686234 101.934357,153.892990 
z"/>
<path fill="#E3F1F7" opacity="1.000000" stroke="none" 
	d="
M128.670380,55.224377 
	C128.828674,55.890842 128.723083,56.778225 128.373215,57.899765 
	C128.221451,57.237713 128.313980,56.341503 128.670380,55.224377 
z"/>
<path fill="#344D82" opacity="1.000000" stroke="none" 
	d="
M37.631191,128.468414 
	C37.758835,128.140686 38.004738,128.100250 38.622440,128.021820 
	C38.994244,127.983833 39.008568,128.003601 39.015312,128.317200 
	C39.068630,129.034225 39.115196,129.437637 39.161762,129.841064 
	C39.161762,129.841064 39.089138,129.912582 39.052895,129.948395 
	C38.594250,129.574707 38.171848,129.165192 37.631191,128.468414 
z"/>
<path fill="#D9E7F5" opacity="1.000000" stroke="none" 
	d="
M88.011917,126.743988 
	C87.906754,126.587029 87.958473,126.428574 88.010193,126.270126 
	C88.063065,126.427582 88.115936,126.585030 88.011917,126.743988 
z"/>
<path fill="#D9E7F5" opacity="1.000000" stroke="none" 
	d="
M110.134392,125.853226 
	C109.561157,126.062691 109.110634,126.073318 108.325378,126.033783 
	C108.576843,125.687279 109.163055,125.390938 110.094650,125.159500 
	C110.440033,125.224411 110.257103,125.654396 110.134392,125.853226 
z"/>
<path fill="#2D4779" opacity="1.000000" stroke="none" 
	d="
M84.101624,57.619629 
	C83.793999,57.919476 83.283470,57.955944 82.390182,57.992474 
	C82.007439,57.992531 82.002899,57.510628 82.001266,57.269691 
	C82.632660,57.137920 83.265694,57.247086 84.101624,57.619629 
z"/>
<path fill="#DAE7F2" opacity="1.000000" stroke="none" 
	d="
M120.154099,121.146393 
	C119.635139,121.446144 119.116173,121.745903 118.295242,121.964058 
	C118.412811,121.431404 118.832336,120.980354 119.582603,120.204666 
	C119.913345,119.880035 119.919586,119.920631 119.881058,120.241646 
	C119.946388,120.757233 120.050240,120.951813 120.154099,121.146393 
z"/>
<path fill="#DBF5FA" opacity="1.000000" stroke="none" 
	d="
M59.836590,121.759659 
	C59.428493,121.855919 58.857265,121.699081 58.140564,121.275291 
	C58.554546,121.174408 59.114002,121.340485 59.836590,121.759659 
z"/>
<path fill="#DAE7F2" opacity="1.000000" stroke="none" 
	d="
M123.154190,119.110428 
	C123.158417,119.368774 122.611443,119.746185 121.883224,120.015701 
	C122.002312,119.681694 122.302658,119.455597 123.154190,119.110428 
z"/>
<path fill="#344D82" opacity="1.000000" stroke="none" 
	d="
M63.453331,147.536896 
	C63.695183,147.363632 64.134224,147.471954 64.765221,147.868622 
	C64.521629,148.044144 64.086067,147.931305 63.453331,147.536896 
z"/>
<path fill="#DBF5FA" opacity="1.000000" stroke="none" 
	d="
M64.939835,123.993286 
	C64.795036,124.185051 64.612923,124.183159 64.220238,124.007248 
	C64.307289,123.822029 64.604904,123.810829 64.939835,123.993286 
z"/>
<path fill="#DBF5FA" opacity="1.000000" stroke="none" 
	d="
M60.999596,108.004440 
	C61.089466,107.972229 61.180008,107.935295 61.130646,107.949722 
	C60.990738,108.001091 61.000267,107.999718 60.999596,108.004440 
z"/>
<path fill="#415179" opacity="1.000000" stroke="none" 
	d="
M24.929174,106.399994 
	C25.027611,106.450493 25.070694,106.562820 25.077969,106.592659 
	C25.085243,106.622498 24.830738,106.349503 24.929174,106.399994 
z"/>
<path fill="#DBF5FA" opacity="1.000000" stroke="none" 
	d="
M32.948353,97.711533 
	C32.673519,97.903694 32.411968,97.734993 32.182167,97.193665 
	C32.454403,97.022285 32.703640,97.198830 32.948353,97.711533 
z"/>
<path fill="#DBF5FA" opacity="1.000000" stroke="none" 
	d="
M31.947857,96.710007 
	C31.745163,96.776878 31.461258,96.648369 31.188084,96.266342 
	C31.475077,96.108688 31.697687,96.275963 31.947857,96.710007 
z"/>
<path fill="#30497E" opacity="1.000000" stroke="none" 
	d="
M129.795303,85.371582 
	C129.889130,85.279213 130.032364,85.610130 130.039551,85.700272 
	C129.823975,85.795059 129.708878,85.686241 129.795303,85.371582 
z"/>
<path fill="#E3F1F7" opacity="1.000000" stroke="none" 
	d="
M123.112350,82.827446 
	C122.981316,82.594635 123.114914,82.265190 123.518005,81.833771 
	C123.650665,82.064804 123.513824,82.397804 123.112350,82.827446 
z"/>
<path fill="#F6FDFA" opacity="1.000000" stroke="none" 
	d="
M121.102158,38.221481 
	C121.162140,38.000690 121.329773,37.999973 121.748856,37.998482 
	C121.999260,38.168320 121.998222,38.338928 121.990982,38.765617 
	C121.666626,38.908234 121.408302,38.714855 121.102158,38.221481 
z"/>
<path fill="#DCE9F3" opacity="1.000000" stroke="none" 
	d="
M102.164177,57.223011 
	C102.169006,57.463745 101.877403,57.709267 101.290558,57.972012 
	C101.286125,57.735420 101.576935,57.481606 102.164177,57.223011 
z"/>
<path fill="#DCE9F3" opacity="1.000000" stroke="none" 
	d="
M118.798706,58.959221 
	C118.572899,59.130489 118.241989,59.030354 117.769104,58.707443 
	C117.982620,58.552383 118.338104,58.620098 118.798706,58.959221 
z"/>
<path fill="#2D4779" opacity="1.000000" stroke="none" 
	d="
M86.235458,58.597481 
	C86.017120,58.744453 85.676933,58.621204 85.171951,58.275784 
	C85.375969,58.144829 85.744789,58.236042 86.235458,58.597481 
z"/>
<path fill="#2E4883" opacity="1.000000" stroke="none" 
	d="
M150.085663,34.393860 
	C150.517181,34.000977 150.932892,34.002129 151.659821,34.005547 
	C152.788177,36.471294 153.079498,39.327114 154.552490,41.301250 
	C156.495682,43.905575 154.806091,44.670326 152.958588,46.018745 
	C151.771408,42.369137 150.920624,38.578510 150.085663,34.393860 
z"/>
<path fill="#1E3D92" opacity="1.000000" stroke="none" 
	d="
M156.693390,106.144791 
	C155.891312,108.900879 154.765228,111.789070 153.328003,114.842728 
	C153.973419,112.035950 151.635971,107.798927 156.693390,106.144791 
z"/>
<path fill="#2A4786" opacity="1.000000" stroke="none" 
	d="
M22.949389,85.473358 
	C24.036785,85.687683 25.136221,86.333435 26.545074,87.056519 
	C26.903023,88.161568 26.951551,89.189293 26.997654,90.603867 
	C26.200733,90.511871 25.406239,90.033028 24.549477,89.516655 
	C24.150415,90.302696 23.808228,90.976715 23.215544,91.800537 
	C22.963840,89.935150 22.962635,87.919960 22.949389,85.473358 
z"/>
<path fill="#2D478B" opacity="1.000000" stroke="none" 
	d="
M59.969055,143.615646 
	C58.771423,143.187103 57.573250,142.376862 56.187798,141.308975 
	C57.323181,141.778870 58.645847,142.506393 59.969055,143.615646 
z"/>
<path fill="#2A458E" opacity="1.000000" stroke="none" 
	d="
M157.703705,30.123203 
	C158.307388,30.765301 158.650040,31.536760 158.991455,32.646507 
	C158.474380,32.074051 157.958511,31.163309 157.703705,30.123203 
z"/>
<path fill="#2F4983" opacity="1.000000" stroke="none" 
	d="
M112.375153,126.979645 
	C113.128372,126.334259 114.255272,125.700050 115.720062,125.056358 
	C114.954910,125.694862 113.851860,126.342842 112.375153,126.979645 
z"/>
<path fill="#2D478B" opacity="1.000000" stroke="none" 
	d="
M50.928738,137.650085 
	C50.331467,137.537323 49.703323,137.107635 49.026535,136.368225 
	C49.617878,136.483368 50.257870,136.908264 50.928738,137.650085 
z"/>
<path fill="#2A4786" opacity="1.000000" stroke="none" 
	d="
M26.921385,91.229485 
	C27.161108,91.570610 27.316246,92.133171 27.253117,92.843613 
	C26.968830,92.477974 26.902815,91.964447 26.921385,91.229485 
z"/>
<path fill="#2D478B" opacity="1.000000" stroke="none" 
	d="
M45.967766,133.720093 
	C45.647800,133.554565 45.338669,133.110901 45.003723,132.387085 
	C45.311470,132.551941 45.645035,132.996948 45.967766,133.720093 
z"/>
<path fill="#2D478B" opacity="1.000000" stroke="none" 
	d="
M39.390091,129.880615 
	C39.115196,129.437637 39.068630,129.034225 39.022823,128.325500 
	C39.346844,128.462448 39.670097,128.904678 40.037579,129.629395 
	C40.081806,129.911865 39.618423,129.920151 39.390091,129.880615 
z"/>
<path fill="#2D478B" opacity="1.000000" stroke="none" 
	d="
M52.811150,138.766754 
	C52.425957,138.847260 51.890095,138.680115 51.198750,138.273041 
	C51.582336,138.195099 52.121403,138.357101 52.811150,138.766754 
z"/>
<path fill="#2D478B" opacity="1.000000" stroke="none" 
	d="
M43.871201,131.788605 
	C43.659523,131.905579 43.408585,131.725830 43.110413,131.256668 
	C43.327213,131.126724 43.583469,131.301605 43.871201,131.788605 
z"/>
<path fill="#2D478B" opacity="1.000000" stroke="none" 
	d="
M42.857670,130.778107 
	C42.644653,130.895798 42.396076,130.715500 42.101402,130.245544 
	C42.317547,130.115997 42.573147,130.290756 42.857670,130.778107 
z"/>
<path fill="#1C9DE2" opacity="1.000000" stroke="none" 
	d="
M43.559666,100.419891 
	C42.331131,97.247765 41.510643,93.851303 39.847004,90.935997 
	C33.308014,79.477310 32.341125,67.960083 36.489361,55.212387 
	C40.615955,42.531189 48.716583,34.508640 59.965855,28.170052 
	C74.530060,19.963604 88.521156,22.076899 102.729279,28.417793 
	C103.161743,28.610794 103.515587,29.035818 103.830597,29.415321 
	C104.021690,29.645519 104.067490,29.996325 104.639946,31.525154 
	C82.924484,26.584230 64.623337,32.268391 52.375736,50.182014 
	C40.304680,67.837418 41.015907,86.726234 53.055790,105.289574 
	C51.674934,105.592026 50.644917,105.817635 49.233597,106.101952 
	C48.852299,106.160667 48.874977,106.134987 48.902962,105.773224 
	C47.158749,103.754150 45.386559,102.096848 43.614365,100.439545 
	C43.614365,100.439545 43.580303,100.416641 43.559666,100.419891 
z"/>
<path fill="#CEF4FA" opacity="1.000000" stroke="none" 
	d="
M115.027229,35.352619 
	C116.392311,36.557907 117.761314,38.117470 119.130310,39.677029 
	C118.769058,40.144753 118.407799,40.612476 118.046547,41.080200 
	C116.737778,40.083115 115.429016,39.086029 114.060379,37.766151 
	C114.344055,36.864536 114.687599,36.285717 115.027229,35.352619 
z"/>
<path fill="#CEF4FA" opacity="1.000000" stroke="none" 
	d="
M106.867859,28.424374 
	C107.554962,28.075354 108.358879,28.048319 109.562912,28.036064 
	C110.950035,29.520267 111.937035,30.989693 112.931854,32.801765 
	C110.954681,31.678396 108.969673,30.212379 106.867859,28.424374 
z"/>
<path fill="#CEF4FA" opacity="1.000000" stroke="none" 
	d="
M111.985168,37.891708 
	C111.657433,37.953308 111.398911,37.753334 111.088028,37.260098 
	C111.159378,37.059555 111.337555,37.081875 111.763184,37.210697 
	C112.010635,37.317196 111.999931,37.700535 111.985168,37.891708 
z"/>
<path fill="#FCFEFD" opacity="1.000000" stroke="none" 
	d="
M42.254436,108.961395 
	C41.067730,108.167221 40.217846,107.313469 39.190346,106.211288 
	C39.789597,105.070938 40.566463,104.179008 41.343334,103.287086 
	C41.759312,105.158669 42.175289,107.030243 42.254436,108.961395 
z"/>
<path fill="#4199C3" opacity="1.000000" stroke="none" 
	d="
M43.630135,100.769653 
	C45.386559,102.096848 47.158749,103.754150 48.915695,105.775101 
	C47.148933,104.459076 45.397419,102.779411 43.630135,100.769653 
z"/>
<path fill="#FCFEFD" opacity="1.000000" stroke="none" 
	d="
M38.466576,100.448776 
	C38.524555,100.413216 38.408600,100.484344 38.466576,100.448776 
z"/>
<path fill="#4B9AD4" opacity="1.000000" stroke="none" 
	d="
M94.934456,73.962685 
	C99.201172,73.414398 102.483284,69.573959 107.455086,70.870934 
	C111.483597,71.921822 114.284935,73.664734 116.064400,77.490990 
	C118.027138,81.711319 116.515800,85.290131 114.396103,88.679131 
	C113.858406,89.538795 111.879265,89.496895 110.468758,89.895767 
	C108.885651,99.699211 101.162033,104.264000 93.320511,108.576790 
	C92.570534,108.989281 90.598518,107.868675 89.590683,106.999573 
	C85.986351,103.891426 82.298218,100.808868 79.172043,97.250740 
	C77.793312,95.681511 77.687096,92.994255 76.994568,90.047607 
	C76.083878,87.771286 74.812332,86.364281 74.359718,84.730415 
	C73.522957,81.709885 71.767860,76.638557 72.878944,75.828629 
	C75.859566,73.655891 78.891273,69.058327 84.057343,72.373749 
	C85.752296,73.461517 88.166748,73.428154 90.529045,74.051781 
	C91.892776,74.148743 92.979637,74.101402 94.282417,74.021065 
	C94.498337,73.988068 94.934456,73.962685 94.934456,73.962685 
z"/>
<path fill="#4D92D7" opacity="1.000000" stroke="none" 
	d="
M90.252174,73.907478 
	C88.166748,73.428154 85.752296,73.461517 84.057343,72.373749 
	C78.891273,69.058327 75.859566,73.655891 72.878944,75.828629 
	C71.767860,76.638557 73.522957,81.709885 74.359718,84.730415 
	C74.812332,86.364281 76.083878,87.771286 76.984398,89.655350 
	C75.669365,90.622757 74.355911,91.215454 72.720322,91.953514 
	C71.290649,88.665169 69.950089,85.581779 68.330086,81.864655 
	C69.060524,78.168411 70.070412,75.105904 71.156967,71.725815 
	C71.334785,70.984482 71.435944,70.560722 71.860474,70.168823 
	C73.489693,69.569740 74.795547,68.938797 76.527405,68.233536 
	C79.266052,68.118675 81.578697,68.078148 84.003197,68.250488 
	C84.326523,68.756676 84.609322,68.867027 85.315559,68.830391 
	C86.138901,68.901878 86.610146,68.937363 87.109734,69.314209 
	C88.176117,71.072868 89.214142,72.490173 90.252174,73.907478 
z"/>
<path fill="#124297" opacity="1.000000" stroke="none" 
	d="
M95.005386,73.619415 
	C94.934456,73.962685 94.498337,73.988068 94.020210,73.849495 
	C93.023453,72.808945 92.504822,71.906967 92.331116,70.948410 
	C95.119301,68.924881 97.562546,66.957939 100.465622,64.993744 
	C109.593376,64.098480 116.657455,66.428459 120.711761,74.816818 
	C120.945312,73.891235 121.181870,72.958946 121.418419,72.026665 
	C121.613731,72.057175 121.809044,72.087692 122.004356,72.118202 
	C122.004356,73.415695 122.004356,74.713188 122.004356,76.010681 
	C121.318344,77.679543 120.632332,79.348396 119.573067,81.058334 
	C118.830009,74.869293 115.822472,70.331734 109.941734,68.316811 
	C104.203232,66.350609 98.746445,68.437553 95.005386,73.619415 
z"/>
<path fill="#16489F" opacity="1.000000" stroke="none" 
	d="
M71.080307,72.043396 
	C70.070412,75.105904 69.060524,78.168411 68.079208,81.628769 
	C67.656540,82.057915 67.205299,82.089211 66.417038,82.146332 
	C65.166389,77.671249 66.945396,73.939735 69.720032,70.206352 
	C70.000000,70.000000 70.000305,70.000305 70.023598,70.307732 
	C70.391365,71.091240 70.735832,71.567314 71.080307,72.043396 
z"/>
<path fill="#344A7E" opacity="1.000000" stroke="none" 
	d="
M140.165588,25.113817 
	C141.586578,25.740511 142.966095,26.726345 144.621216,27.877605 
	C145.194824,28.821474 145.492813,29.599918 145.815079,30.691574 
	C143.934296,29.160845 142.029205,27.316902 140.165588,25.113817 
z"/>
<path fill="#1B3F9B" opacity="1.000000" stroke="none" 
	d="
M122.284737,75.738342 
	C122.004356,74.713188 122.004356,73.415695 122.004356,72.118202 
	C121.809044,72.087692 121.613731,72.057175 121.418419,72.026665 
	C121.181870,72.958946 120.945312,73.891235 120.711761,74.816818 
	C116.657455,66.428459 109.593376,64.098480 100.590347,64.719467 
	C100.830757,63.625908 101.406296,62.809372 101.981834,61.992836 
	C101.981834,61.992836 101.996407,61.997646 102.217987,61.886246 
	C102.714378,61.575657 102.898537,61.312912 102.992027,60.986607 
	C104.421921,60.324417 105.851822,59.662228 107.803596,59.247345 
	C109.053093,60.071674 109.780708,60.648693 110.784485,61.444714 
	C110.873596,60.458649 110.940155,59.722095 111.006714,58.985542 
	C118.626747,59.638691 123.724823,66.907745 122.284737,75.738342 
z"/>
<path fill="#1D4092" opacity="1.000000" stroke="none" 
	d="
M101.595970,61.991982 
	C101.406296,62.809372 100.830757,63.625908 100.130501,64.716721 
	C97.562546,66.957939 95.119301,68.924881 92.035072,70.922867 
	C90.929146,70.630768 90.464195,70.307625 89.993568,69.631821 
	C88.991959,67.521667 87.996033,65.764191 87.006073,63.749390 
	C87.017204,63.320549 87.022362,63.149033 87.372185,63.018929 
	C89.299461,63.980099 90.882072,64.899857 92.464676,65.819611 
	C94.228058,64.729454 95.991440,63.639301 97.937576,62.270054 
	C99.150253,61.991020 100.180183,61.991077 101.595970,61.991982 
z"/>
<path fill="#1D4092" opacity="1.000000" stroke="none" 
	d="
M110.819260,58.740440 
	C110.940155,59.722095 110.873596,60.458649 110.784485,61.444714 
	C109.780708,60.648693 109.053093,60.071674 108.159653,59.244507 
	C108.873146,58.828018 109.752480,58.661678 110.819260,58.740440 
z"/>
<path fill="#1D4092" opacity="1.000000" stroke="none" 
	d="
M102.773994,61.094749 
	C102.898537,61.312912 102.714378,61.575657 102.218826,61.878975 
	C102.096649,61.660538 102.282608,61.400467 102.773994,61.094749 
z"/>
<path fill="#3C4E79" opacity="1.000000" stroke="none" 
	d="
M141.826324,19.273743 
	C141.649292,19.401138 141.490814,19.325424 141.190002,19.028166 
	C141.313416,18.894625 141.579147,18.982628 141.826324,19.273743 
z"/>
<path fill="#DAE7F2" opacity="1.000000" stroke="none" 
	d="
M119.898239,120.236542 
	C120.239388,119.861412 120.524834,119.812393 120.810272,119.763382 
	C120.797104,120.149696 120.783936,120.536011 120.462433,121.034355 
	C120.050240,120.951813 119.946388,120.757233 119.898239,120.236542 
z"/>
<path fill="#16489F" opacity="1.000000" stroke="none" 
	d="
M76.101395,68.307861 
	C74.795547,68.938797 73.489693,69.569740 71.475677,70.129593 
	C70.511780,70.039116 70.256042,70.019707 70.000305,70.000305 
	C70.000305,70.000305 70.000000,70.000000 69.999329,69.999329 
	C69.668121,68.244370 69.337593,66.490082 68.991280,64.346664 
	C68.975487,63.957539 68.984406,63.481453 69.339272,63.209332 
	C72.066948,62.072006 74.220612,61.771141 75.140419,65.319336 
	C75.551788,66.528946 75.826591,67.418404 76.101395,68.307861 
z"/>
<path fill="#1D3D98" opacity="1.000000" stroke="none" 
	d="
M75.003853,64.999184 
	C74.220612,61.771141 72.066948,62.072006 69.347710,62.971394 
	C71.617325,57.853424 76.926918,59.271435 81.552658,58.034725 
	C83.075890,59.009109 84.191490,59.975819 85.674957,61.280991 
	C86.368958,62.073784 86.695107,62.528126 87.014801,62.988747 
	C87.008354,62.995033 87.027512,62.977516 87.027512,62.977516 
	C87.022362,63.149033 87.017204,63.320549 86.747299,63.853844 
	C85.989891,64.475502 85.497246,64.735390 84.913986,64.829338 
	C84.546989,64.773788 84.270599,64.884178 83.544662,64.995102 
	C80.398026,64.996819 77.700935,64.998001 75.003853,64.999184 
z"/>
<path fill="#2D4779" opacity="1.000000" stroke="none" 
	d="
M92.426109,65.476273 
	C90.882072,64.899857 89.299461,63.980099 87.372185,63.018929 
	C87.027512,62.977516 87.008354,62.995033 87.009689,62.665398 
	C86.991295,61.905300 86.971573,61.474834 86.951851,61.044369 
	C86.991295,60.777615 87.030739,60.510857 87.138412,59.845036 
	C87.907112,59.914646 88.607597,60.383316 89.603271,60.976151 
	C90.728149,62.444519 91.557846,63.788727 92.426109,65.476273 
z"/>
<path fill="#1D4092" opacity="1.000000" stroke="none" 
	d="
M86.712799,61.035366 
	C86.971573,61.474834 86.991295,61.905300 87.016129,62.659115 
	C86.695107,62.528126 86.368958,62.073784 86.019081,61.326046 
	C85.995346,61.032646 86.473755,61.026363 86.712799,61.035366 
z"/>
<path fill="#16489F" opacity="1.000000" stroke="none" 
	d="
M89.999252,69.984489 
	C90.464195,70.307625 90.929146,70.630768 91.690140,70.979446 
	C92.504822,71.906967 93.023453,72.808945 93.804291,73.882492 
	C92.979637,74.101402 91.892776,74.148743 90.529045,74.051781 
	C89.214142,72.490173 88.176117,71.072868 87.418571,69.346939 
	C88.465790,69.353706 89.232521,69.669098 89.999252,69.984489 
z"/>
<path fill="#124297" opacity="1.000000" stroke="none" 
	d="
M89.993568,69.631821 
	C89.232521,69.669098 88.465790,69.353706 87.390221,69.005585 
	C86.610146,68.937363 86.138901,68.901878 85.184891,68.646606 
	C84.475731,68.205795 84.205475,68.076057 83.891342,68.037613 
	C81.578697,68.078148 79.266052,68.118675 76.527405,68.233536 
	C75.826591,67.418404 75.551788,66.528946 75.140419,65.319336 
	C77.700935,64.998001 80.398026,64.996819 83.797287,64.997025 
	C84.667839,64.997360 84.836220,64.996323 85.004593,64.995277 
	C85.497246,64.735390 85.989891,64.475502 86.741325,64.111160 
	C87.996033,65.764191 88.991959,67.521667 89.993568,69.631821 
z"/>
<path fill="#124297" opacity="1.000000" stroke="none" 
	d="
M70.023598,70.307732 
	C70.256042,70.019707 70.511780,70.039116 71.152313,70.097748 
	C71.435944,70.560722 71.334785,70.984482 71.156967,71.725815 
	C70.735832,71.567314 70.391365,71.091240 70.023598,70.307732 
z"/>
<path fill="#16489F" opacity="1.000000" stroke="none" 
	d="
M84.003197,68.250481 
	C84.205475,68.076057 84.475731,68.205795 84.832787,68.610611 
	C84.609322,68.867027 84.326523,68.756676 84.003197,68.250481 
z"/>
<path fill="#16489F" opacity="1.000000" stroke="none" 
	d="
M84.913986,64.829338 
	C84.836220,64.996323 84.667839,64.997360 84.246834,64.996483 
	C84.270599,64.884178 84.546989,64.773788 84.913986,64.829338 
z"/>
</svg>